<?xml version="1.0" standalone="no"?>
<!DOCTYPE svg PUBLIC "-//W3C//DTD SVG 20010904//EN"
 "http://www.w3.org/TR/2001/REC-SVG-20010904/DTD/svg10.dtd">
<svg version="1.0" xmlns="http://www.w3.org/2000/svg"
 width="144.000000pt" height="73.000000pt" viewBox="0 0 144.000000 73.000000"
 preserveAspectRatio="xMidYMid meet">

<g transform="translate(0.000000,73.000000) scale(0.100000,-0.100000)"
fill="#000000" stroke="none">
<path d="M223 638 c-6 -7 -14 -23 -17 -36 -11 -34 -40 -44 -101 -37 -47 6 -56
5 -61 -10 -10 -25 8 -48 49 -64 53 -20 103 -7 150 39 33 34 38 44 35 77 -2 30
-8 39 -24 41 -11 2 -25 -3 -31 -10z"/>
<path d="M765 633 c-64 -5 -85 -12 -85 -28 0 -10 11 -15 35 -15 39 0 44 -9 15
-28 -16 -10 -20 -23 -20 -72 0 -53 2 -60 20 -60 17 0 20 7 20 44 0 44 19 74
40 61 5 -3 10 -28 10 -56 0 -42 3 -49 20 -49 18 0 20 7 20 70 0 67 -1 70 -24
70 -13 0 -26 7 -30 15 -3 10 1 15 12 15 19 0 42 18 42 32 0 4 -8 7 -17 6 -10
-1 -36 -3 -58 -5z"/>
<path d="M314 567 c-30 -28 -37 -42 -41 -83 -9 -85 44 -166 97 -149 27 9 25
34 -5 75 -14 19 -25 41 -25 50 0 8 11 32 25 52 29 42 32 73 9 82 -22 9 -21 9
-60 -27z"/>
<path d="M533 583 c-9 -3 -13 -29 -13 -79 0 -72 1 -74 25 -74 24 0 25 3 25 56
0 52 1 55 23 52 19 -3 22 -10 25 -55 3 -49 5 -53 28 -53 23 0 24 3 24 60 0 76
-20 100 -82 99 -24 0 -49 -3 -55 -6z"/>
<path d="M906 574 c-23 -22 -21 -58 2 -49 9 4 29 10 45 13 27 4 27 4 27 -52 0
-53 1 -56 25 -56 24 0 25 3 25 60 0 47 -4 64 -20 80 -24 24 -82 27 -104 4z"/>
<path d="M1078 583 c-15 -4 -18 -16 -18 -79 l0 -74 30 0 c30 0 30 1 30 54 0
30 4 57 9 61 19 11 41 -27 41 -71 0 -37 3 -44 20 -44 18 0 20 7 20 63 0 49 -4
68 -18 80 -18 16 -73 21 -114 10z"/>
<path d="M1260 511 c0 -71 -2 -80 -20 -86 -29 -9 -27 -39 3 -31 12 3 30 6 40
6 13 0 17 8 17 33 0 26 6 35 33 47 65 30 40 110 -35 110 l-38 0 0 -79z m68 22
c-4 -39 -28 -42 -28 -4 0 21 5 31 16 31 11 0 14 -8 12 -27z"/>
<path d="M93 450 c-41 -10 -63 -27 -63 -51 0 -24 37 -34 73 -20 38 15 74 -4
98 -51 35 -68 98 -39 70 33 -12 34 -68 89 -89 89 -9 0 -26 2 -37 4 -11 3 -35
1 -52 -4z"/>
<path d="M833 385 c-3 -9 -3 -19 1 -22 10 -10 55 -9 49 1 -4 5 3 7 14 4 11 -3
20 0 20 7 0 12 -25 14 -45 1 -7 -4 -12 -1 -12 8 0 21 -19 21 -27 1z"/>
<path d="M931 377 c0 -13 3 -16 6 -8 5 11 7 11 14 0 7 -11 9 -11 9 2 0 9 -7
19 -15 23 -11 4 -15 -1 -14 -17z"/>
<path d="M983 385 c-3 -9 -2 -19 2 -23 9 -10 55 -10 55 0 0 4 6 5 14 2 16 -6
30 22 16 31 -6 4 -10 2 -10 -4 0 -6 -6 -8 -14 -5 -7 3 -20 -2 -29 -10 -19 -20
-27 -20 -27 -2 0 8 8 17 18 19 16 4 16 5 -1 6 -10 0 -20 -6 -24 -14z"/>
<path d="M1090 380 c-13 -9 -13 -11 0 -19 10 -7 17 -6 22 2 6 9 10 8 18 -3 8
-12 10 -12 10 -1 0 10 3 11 14 2 10 -8 16 -8 25 3 8 9 8 16 2 20 -5 4 -12 2
-15 -3 -7 -10 -31 -9 -42 2 -10 9 -16 9 -34 -3z"/>
<path d="M336 155 c4 -8 11 -15 16 -15 6 0 5 6 -2 15 -7 8 -14 15 -16 15 -2 0
-1 -7 2 -15z"/>
<path d="M243 145 c0 -8 4 -12 8 -9 4 2 10 -2 12 -8 4 -8 6 -9 6 -2 1 6 -5 17
-12 23 -10 8 -14 7 -14 -4z"/>
<path d="M900 150 c0 -5 7 -10 16 -10 8 0 12 5 9 10 -3 6 -10 10 -16 10 -5 0
-9 -4 -9 -10z"/>
<path d="M966 145 c-9 -26 -7 -32 5 -12 6 10 9 21 6 23 -2 3 -7 -2 -11 -11z"/>
<path d="M1102 140 c0 -14 2 -19 5 -12 2 6 2 18 0 25 -3 6 -5 1 -5 -13z"/>
<path d="M1172 140 c0 -14 2 -19 5 -12 2 6 2 18 0 25 -3 6 -5 1 -5 -13z"/>
<path d="M846 137 c3 -10 9 -15 12 -12 3 3 0 11 -7 18 -10 9 -11 8 -5 -6z"/>
<path d="M1048 143 c7 -3 16 -2 19 1 4 3 -2 6 -13 5 -11 0 -14 -3 -6 -6z"/>
</g>
</svg>
